<?xml version="1.0" encoding="utf-8"?>
<!-- Generator: Adobe Illustrator 25.2.0, SVG Export Plug-In . SVG Version: 6.00 Build 0)  -->
<svg version="1.1" id="Layer_1" xmlns="http://www.w3.org/2000/svg" xmlns:xlink="http://www.w3.org/1999/xlink" x="0px" y="0px"
	 viewBox="0 0 118.4 118.4" style="enable-background:new 0 0 118.4 118.4;" xml:space="preserve">
<style type="text/css">
	.st0{fill:#053E90;}
	.st1{fill:#4CA2D9;}
</style>
<g>
	<g>
		<path class="st0" d="M98.6,40H78.4l0,0h-0.7H58c-9.9,0-18,8.1-18,18v19.7v0.7l0,0v20.2c0,10.4,8.4,18.8,18.8,18.8
			s18.8-8.4,18.8-18.8V86.1l-5.8-5.8l-6.1,6.1l-12.4-31l31,12.4l-6.1,6.1l3.8,3.8h16.7c10.4,0,18.8-8.4,18.8-18.8l0,0
			C117.5,48.5,109,40,98.6,40z"/>
		<path class="st1" d="M40,77.7V58c0-9.9,8.1-18,18-18h19.7h0.7l0,0V19.8C78.4,9.4,69.9,1,59.5,1l0,0C49.2,1,40.7,9.4,40.7,19.8
			v20.9H19.8C9.4,40.7,1,49.1,1,59.5l0,0c0,10.4,8.4,18.8,18.8,18.8h20.2l0,0L40,77.7L40,77.7z"/>
	</g>
</g>
</svg>
