<?xml version="1.0" encoding="utf-8"?>
<!-- Generator: Adobe Illustrator 25.2.0, SVG Export Plug-In . SVG Version: 6.00 Build 0)  -->
<svg version="1.1" id="Layer_1" xmlns="http://www.w3.org/2000/svg" xmlns:xlink="http://www.w3.org/1999/xlink" x="0px" y="0px"
	 viewBox="0 0 341.4 235.4" style="enable-background:new 0 0 341.4 235.4;" xml:space="preserve">
<style type="text/css">
	.st0{fill:#053E90;}
	.st1{fill:#4CA2D9;}
</style>
<g>
	<g>
		<path class="st0" d="M21,224c3.6,0,6.6-1.4,8.9-4.3l4.8,4.9c-3.8,4.2-8.2,6.4-13.3,6.4s-9.3-1.6-12.7-4.9c-3.3-3.2-5-7.3-5-12.2
			s1.7-9,5.1-12.3s7.5-4.9,12.4-4.9c5.5,0,10,2.1,13.7,6.2l-4.6,5.2c-2.3-2.9-5.3-4.4-8.8-4.4c-2.8,0-5.2,0.9-7.2,2.7s-3,4.3-3,7.4
			s0.9,5.6,2.8,7.4C16.1,223,18.4,224,21,224z"/>
		<path class="st0" d="M47,230.5h-7.1v-35.3H47V230.5z"/>
		<path class="st0" d="M54.3,201.7c-0.8-0.8-1.2-1.8-1.2-3s0.4-2.2,1.2-3s1.8-1.2,3-1.2s2.2,0.4,3,1.2s1.2,1.8,1.2,3s-0.4,2.2-1.2,3
			s-1.8,1.2-3,1.2S55.1,202.5,54.3,201.7z M60.9,230.5h-7.1v-25.6h7.1V230.5z"/>
		<path class="st0" d="M79.9,224.6c2.4,0,4.5-1.2,6.4-3.6l4.2,4.8c-3.3,3.4-6.9,5.1-10.7,5.1s-7.1-1.2-9.7-3.6c-2.6-2.4-4-5.6-4-9.5
			s1.3-7.1,4-9.6s5.9-3.7,9.5-3.7c1.8,0,3.7,0.4,5.6,1.1s3.5,1.9,5,3.4l-3.7,4.9c-0.8-1-1.8-1.7-3-2.3c-1.2-0.5-2.4-0.8-3.5-0.8
			c-1.9,0-3.5,0.6-4.8,1.8s-2,2.9-2,5.1c0,2.2,0.7,3.9,2,5.1S78.1,224.6,79.9,224.6z"/>
		<path class="st0" d="M102.4,230.5h-7.1v-35.3h7.1v18.1l7.9-8.5h9l-9.8,10.4l10.1,15.3h-8.5l-6.5-9.8l-2.3,2.4v7.4H102.4z"/>
		<path class="st1" d="M154.1,209.6l-9,18.2h-4.4l-8.9-18.2v20.9h-7.4v-33.2h10l8.6,18.3l8.6-18.3h10v33.2h-7.4v-20.9H154.1z"/>
		<path class="st1" d="M191.2,226.8c-2.9,2.7-6.3,4.1-10.2,4.1s-7.1-1.2-9.6-3.6c-2.5-2.4-3.8-5.6-3.8-9.6s1.3-7.2,3.9-9.6
			c2.6-2.4,5.6-3.6,9.2-3.6s6.5,1.1,9,3.2c2.5,2.1,3.7,5,3.7,8.8v3.8h-18.6c0.2,1.4,1,2.5,2.2,3.4s2.6,1.3,4.2,1.3
			c2.5,0,4.6-0.8,6.2-2.5L191.2,226.8z M184.3,211.7c-1-0.8-2.2-1.2-3.6-1.2c-1.4,0-2.7,0.4-3.9,1.3c-1.2,0.9-1.9,2-2,3.5H186
			C185.9,213.7,185.3,212.5,184.3,211.7z"/>
		<path class="st1" d="M208.6,230.9c-3,0-5.7-1.3-8.1-3.9c-2.4-2.6-3.6-5.8-3.6-9.6s1.2-6.9,3.5-9.3c2.3-2.4,5-3.6,8.1-3.6
			s5.6,1.1,7.6,3.3v-12.6h7.1v35.3h-7.1v-3.4C214.2,229.7,211.7,230.9,208.6,230.9z M204.1,217.8c0,2.1,0.6,3.8,1.9,5.1
			c1.2,1.3,2.7,2,4.3,2s3.1-0.7,4.2-2c1.2-1.3,1.7-3,1.7-5.1s-0.6-3.8-1.7-5.2c-1.2-1.4-2.6-2.1-4.3-2.1s-3.1,0.7-4.3,2.1
			C204.7,214,204.1,215.7,204.1,217.8z"/>
		<path class="st1" d="M230.7,201.7c-0.8-0.8-1.2-1.8-1.2-3s0.4-2.2,1.2-3s1.8-1.2,3-1.2s2.2,0.4,3,1.2s1.2,1.8,1.2,3
			s-0.4,2.2-1.2,3s-1.8,1.2-3,1.2S231.5,202.5,230.7,201.7z M237.2,230.5h-7.1v-25.6h7.1V230.5z"/>
		<path class="st1" d="M256.2,224.6c2.4,0,4.5-1.2,6.4-3.6l4.2,4.8c-3.3,3.4-6.9,5.1-10.7,5.1s-7.1-1.2-9.7-3.6
			c-2.6-2.4-4-5.6-4-9.5s1.3-7.1,4-9.6s5.9-3.7,9.5-3.7c1.8,0,3.7,0.4,5.6,1.1s3.5,1.9,5,3.4l-3.7,4.9c-0.8-1-1.8-1.7-3-2.3
			c-1.2-0.5-2.4-0.8-3.5-0.8c-1.9,0-3.5,0.6-4.8,1.8s-2,2.9-2,5.1c0,2.2,0.7,3.9,2,5.1S254.4,224.6,256.2,224.6z"/>
		<path class="st1" d="M272.2,201.7c-0.8-0.8-1.2-1.8-1.2-3s0.4-2.2,1.2-3c0.8-0.8,1.8-1.2,3-1.2s2.2,0.4,3,1.2s1.2,1.8,1.2,3
			s-0.4,2.2-1.2,3c-0.8,0.8-1.8,1.2-3,1.2S273,202.5,272.2,201.7z M278.8,230.5h-7.1v-25.6h7.1V230.5z"/>
		<path class="st1" d="M292.7,216.3v14.3h-7.1V205h7.1v2.9c2.2-2.2,4.6-3.3,7.3-3.3c2.7,0,5,1,6.8,2.9s2.7,4.4,2.7,7.6v15.6h-7.1
			v-14.5c0-3.9-1.4-5.9-4.3-5.9c-1.4,0-2.7,0.5-3.7,1.5C293.2,212.8,292.7,214.3,292.7,216.3z"/>
		<path class="st1" d="M337.7,230.5H331v-3.1c-1.8,2.3-4.1,3.5-6.8,3.5c-2.7,0-5-0.8-6.8-2.4c-1.8-1.6-2.8-3.7-2.8-6.3
			s1-4.6,2.9-5.9c1.9-1.3,4.5-2,7.8-2h5.3v-0.1c0-2.7-1.4-4.1-4.3-4.1c-1.2,0-2.5,0.2-3.9,0.7s-2.5,1.1-3.5,1.8l-3.2-4.6
			c3.4-2.4,7.2-3.7,11.5-3.7c3.1,0,5.6,0.8,7.6,2.3c2,1.6,2.9,4,2.9,7.4V230.5z M330.5,220.8v-1.2H326c-2.9,0-4.3,0.9-4.3,2.7
			c0,0.9,0.3,1.6,1,2.1s1.7,0.7,2.9,0.7s2.4-0.4,3.4-1.2S330.5,222.1,330.5,220.8z"/>
	</g>
	<g>
		<g>
			<path class="st0" d="M224,56.8h-27.1l0,0H196h-26.4c-13.3,0-24.1,10.8-24.1,24.1v26.4v0.9l0,0v27.1c0,13.9,11.3,25.2,25.2,25.2
				s25.2-11.3,25.2-25.2v-16.8l-7.8-7.8l-8.2,8.2l-16.6-41.5L204.8,94l-8.2,8.2l5.1,5.1H224c13.9,0,25.2-11.3,25.2-25.2l0,0
				C249.3,68.1,238,56.8,224,56.8z"/>
			<path class="st1" d="M145.5,107.3V80.9c0-13.3,10.8-24.1,24.1-24.1H196h0.9l0,0V29.7c0-13.9-11.3-25.2-25.2-25.2l0,0
				c-13.9,0-25.2,11.3-25.2,25.2v28h-28c-13.9,0-25.2,11.3-25.2,25.2l0,0c0,13.9,11.3,25.2,25.2,25.2h27.1l0,0v-0.8H145.5z"/>
		</g>
	</g>
</g>
</svg>
