<?xml version="1.0" encoding="utf-8"?>
<!-- Generator: Adobe Illustrator 25.2.0, SVG Export Plug-In . SVG Version: 6.00 Build 0)  -->
<svg version="1.1" id="Layer_1" xmlns="http://www.w3.org/2000/svg" xmlns:xlink="http://www.w3.org/1999/xlink" x="0px" y="0px"
	 viewBox="0 0 478.7 114" style="enable-background:new 0 0 478.7 114;" xml:space="preserve">
<style type="text/css">
	.st0{fill:#053E90;}
	.st1{fill:#4CA2D9;}
	.st2{opacity:0.5;clip-path:url(#SVGID_2_);}
	.st3{fill:#FFFFFF;}
	.st4{opacity:0.5;clip-path:url(#SVGID_4_);}
</style>
<g>
	<g>
		<path class="st3" d="M158.8,68.3c3.6,0,6.6-1.4,8.9-4.3l4.8,4.9c-3.8,4.2-8.2,6.4-13.3,6.4s-9.3-1.6-12.7-4.9
			c-3.3-3.2-5-7.3-5-12.2c0-4.9,1.7-9,5.1-12.3c3.4-3.3,7.5-4.9,12.4-4.9c5.5,0,10,2.1,13.7,6.2l-4.6,5.2c-2.3-2.9-5.3-4.4-8.8-4.4
			c-2.8,0-5.2,0.9-7.2,2.7c-2,1.8-3,4.3-3,7.4s0.9,5.6,2.8,7.4C153.8,67.3,156.1,68.3,158.8,68.3z"/>
		<path class="st3" d="M184.7,74.8h-7.1V39.5h7.1V74.8z"/>
		<path class="st3" d="M192.1,46c-0.8-0.8-1.2-1.8-1.2-3s0.4-2.2,1.2-3c0.8-0.8,1.8-1.2,3-1.2s2.2,0.4,3,1.2c0.8,0.8,1.2,1.8,1.2,3
			s-0.4,2.2-1.2,3c-0.8,0.8-1.8,1.2-3,1.2S192.9,46.8,192.1,46z M198.6,74.8h-7.1V49.2h7.1V74.8z"/>
		<path class="st3" d="M217.7,68.9c2.4,0,4.5-1.2,6.4-3.6l4.2,4.8c-3.3,3.4-6.9,5.1-10.7,5.1s-7.1-1.2-9.7-3.6c-2.6-2.4-4-5.6-4-9.5
			c0-3.9,1.3-7.1,4-9.6c2.7-2.5,5.9-3.7,9.5-3.7c1.8,0,3.7,0.4,5.6,1.1s3.5,1.9,5,3.4l-3.7,4.9c-0.8-1-1.8-1.7-3-2.3
			c-1.2-0.5-2.4-0.8-3.5-0.8c-1.9,0-3.5,0.6-4.8,1.8s-2,2.9-2,5.1c0,2.2,0.7,3.9,2,5.1S215.8,68.9,217.7,68.9z"/>
		<path class="st3" d="M240.2,74.8h-7.1V39.5h7.1v18.1l7.9-8.5h9l-9.8,10.4l10.1,15.3H249l-6.5-9.8l-2.3,2.4V74.8z"/>
		<path class="st3" d="M291.9,53.9l-9,18.2h-4.4l-8.9-18.2v20.9h-7.4V41.6h10l8.6,18.3l8.6-18.3h10v33.2h-7.4V53.9z"/>
		<path class="st3" d="M328.9,71.1c-2.9,2.7-6.3,4.1-10.2,4.1c-3.9,0-7.1-1.2-9.6-3.6c-2.5-2.4-3.8-5.6-3.8-9.6c0-4,1.3-7.2,3.9-9.6
			c2.6-2.4,5.6-3.6,9.2-3.6s6.5,1.1,9,3.2c2.5,2.1,3.7,5,3.7,8.8v3.8h-18.6c0.2,1.4,1,2.5,2.2,3.4c1.2,0.9,2.6,1.3,4.2,1.3
			c2.5,0,4.6-0.8,6.2-2.5L328.9,71.1z M322.1,55.9c-1-0.8-2.2-1.2-3.6-1.2c-1.4,0-2.7,0.4-3.9,1.3c-1.2,0.9-1.9,2-2,3.5h11.2
			C323.6,57.9,323,56.8,322.1,55.9z"/>
		<path class="st3" d="M346.4,75.2c-3,0-5.7-1.3-8.1-3.9c-2.4-2.6-3.6-5.8-3.6-9.6c0-3.8,1.2-6.9,3.5-9.3c2.3-2.4,5-3.6,8.1-3.6
			c3.1,0,5.6,1.1,7.6,3.3V39.5h7.1v35.3h-7.1v-3.4C351.9,74,349.4,75.2,346.4,75.2z M341.9,62.1c0,2.1,0.6,3.8,1.9,5.1
			c1.2,1.3,2.7,2,4.3,2c1.6,0,3.1-0.7,4.2-2c1.2-1.3,1.7-3,1.7-5.1c0-2.1-0.6-3.8-1.7-5.2c-1.2-1.4-2.6-2.1-4.3-2.1
			s-3.1,0.7-4.3,2.1C342.5,58.3,341.9,60,341.9,62.1z"/>
		<path class="st3" d="M368.4,46c-0.8-0.8-1.2-1.8-1.2-3s0.4-2.2,1.2-3c0.8-0.8,1.8-1.2,3-1.2s2.2,0.4,3,1.2c0.8,0.8,1.2,1.8,1.2,3
			s-0.4,2.2-1.2,3c-0.8,0.8-1.8,1.2-3,1.2S369.2,46.8,368.4,46z M375,74.8h-7.1V49.2h7.1V74.8z"/>
		<path class="st3" d="M394,68.9c2.4,0,4.5-1.2,6.4-3.6l4.2,4.8c-3.3,3.4-6.9,5.1-10.7,5.1s-7.1-1.2-9.7-3.6c-2.6-2.4-4-5.6-4-9.5
			c0-3.9,1.3-7.1,4-9.6c2.7-2.5,5.9-3.7,9.5-3.7c1.8,0,3.7,0.4,5.6,1.1s3.5,1.9,5,3.4l-3.7,4.9c-0.8-1-1.8-1.7-3-2.3
			c-1.2-0.5-2.4-0.8-3.5-0.8c-1.9,0-3.5,0.6-4.8,1.8s-2,2.9-2,5.1c0,2.2,0.7,3.9,2,5.1S392.2,68.9,394,68.9z"/>
		<path class="st3" d="M410,46c-0.8-0.8-1.2-1.8-1.2-3s0.4-2.2,1.2-3c0.8-0.8,1.8-1.2,3-1.2s2.2,0.4,3,1.2c0.8,0.8,1.2,1.8,1.2,3
			s-0.4,2.2-1.2,3c-0.8,0.8-1.8,1.2-3,1.2S410.8,46.8,410,46z M416.5,74.8h-7.1V49.2h7.1V74.8z"/>
		<path class="st3" d="M430.4,60.6v14.3h-7.1V49.2h7.1v2.9c2.2-2.2,4.6-3.3,7.3-3.3c2.7,0,5,1,6.8,2.9c1.8,1.9,2.7,4.4,2.7,7.6v15.6
			h-7.1V60.4c0-3.9-1.4-5.9-4.3-5.9c-1.4,0-2.7,0.5-3.7,1.5C430.9,57,430.4,58.6,430.4,60.6z"/>
		<path class="st3" d="M475.4,74.8h-6.7v-3.1c-1.8,2.3-4.1,3.5-6.8,3.5c-2.7,0-5-0.8-6.8-2.4c-1.8-1.6-2.8-3.7-2.8-6.3
			c0-2.6,1-4.6,2.9-5.9c1.9-1.3,4.5-2,7.8-2h5.3v-0.1c0-2.7-1.4-4.1-4.3-4.1c-1.2,0-2.5,0.2-3.9,0.7c-1.4,0.5-2.5,1.1-3.5,1.8
			l-3.2-4.6c3.4-2.4,7.2-3.7,11.5-3.7c3.1,0,5.6,0.8,7.6,2.3c2,1.6,2.9,4,2.9,7.4V74.8z M468.2,65.1v-1.2h-4.5
			c-2.9,0-4.3,0.9-4.3,2.7c0,0.9,0.3,1.6,1,2.1c0.7,0.5,1.7,0.7,2.9,0.7s2.4-0.4,3.4-1.2C467.7,67.4,468.2,66.4,468.2,65.1z"/>
	</g>
	<g>
		<g>
			<path class="st3" d="M93.7,39.3H75v0h-0.6H56.1c-9.2,0-16.6,7.5-16.6,16.6v18.2v0.6l0,0v18.7c0,9.6,7.8,17.4,17.4,17.4
				c9.6,0,17.4-7.8,17.4-17.4V81.9l-5.4-5.4l-5.6,5.6L51.8,53.5l28.6,11.5l-5.6,5.6l3.5,3.5h15.4c9.6,0,17.4-7.8,17.4-17.4v0
				C111.1,47.1,103.3,39.3,93.7,39.3z"/>
			<path class="st3" d="M39.5,74.1V55.9c0-9.2,7.5-16.6,16.6-16.6h18.2H75v0V20.5c0-9.6-7.8-17.4-17.4-17.4h0
				c-9.6,0-17.4,7.8-17.4,17.4v19.4H20.7c-9.6,0-17.4,7.8-17.4,17.4v0c0,9.6,7.8,17.4,17.4,17.4h18.7l0,0V74.1z"/>
		</g>
		<g>
			<defs>
				<path id="SVGID_3_" d="M39.5,74.1V55.9c0-9.2,7.5-16.6,16.6-16.6h18.2H75v0V20.5c0-9.6-7.8-17.4-17.4-17.4s-17.4,7.8-17.4,17.4
					v19.4H20.7c-9.6,0-17.4,7.8-17.4,17.4v0c0,9.6,7.8,17.4,17.4,17.4h18.7h0V74.1z"/>
			</defs>
			<use xlink:href="#SVGID_3_"  style="overflow:visible;fill:#FFFFFF;"/>
			<clipPath id="SVGID_2_">
				<use xlink:href="#SVGID_3_"  style="overflow:visible;"/>
			</clipPath>
			<g class="st2">
				
					<image style="overflow:visible;" width="176" height="177" xlink:href="75D7AA0.png"  transform="matrix(0.6909 0 0 0.6909 14.4502 14.1617)">
				</image>
			</g>
		</g>
	</g>
</g>
</svg>
