<?xml version="1.0" ?><!DOCTYPE svg  PUBLIC '-//W3C//DTD SVG 1.1//EN'  'http://www.w3.org/Graphics/SVG/1.1/DTD/svg11.dtd'><svg enable-background="new 0 0 24 24" height="24px" id="Layer_1" version="1.1" viewBox="0 0 24 24" width="24px" xml:space="preserve" xmlns="http://www.w3.org/2000/svg" xmlns:xlink="http://www.w3.org/1999/xlink"><path d="M23.7,7.4l-2.1-2.1L15.9,11h-5.7l8.6-8.6l-2.1-2.2c-0.4-0.4-1-0.4-1.4,0c-0.4,0.4-0.4,1,0,1.4l0.7,0.7L1.1,17.1  c-1.6,1.6-1.6,4.1,0,5.7c1.6,1.6,4.1,1.6,5.7,0L21.6,8.1l0.7,0.7c0.4,0.4,1,0.4,1.4,0C24.1,8.4,24.1,7.8,23.7,7.4z M5.4,21.4  c-0.8,0.8-2.1,0.8-2.9,0c-0.8-0.8-0.8-2,0-2.8L9.1,12h5.7L5.4,21.4z"/></svg>